<svg width="34" height="34" viewBox="0 0 34 34" fill="none" xmlns="http://www.w3.org/2000/svg">
<g clip-path="url(#clip0_1_36)">
<path d="M0 30.6H17V30.158C19.584 30.838 22.389 30.753 25.092 29.75C32.13 27.166 35.751 19.346 33.167 12.308C30.736 5.69499 23.681 2.10799 17 3.84199V3.39999H0V30.6ZM15.3 5.09999V28.9H1.7V5.09999H15.3ZM24.565 19.074C24.0119 20.1757 23.0454 21.0139 21.8765 21.4056C20.7077 21.7974 19.4313 21.7109 18.326 21.165C17.799 20.91 17.357 20.57 17 20.162V13.821C18.36 12.359 20.587 11.9 22.474 12.835C24.769 13.991 25.704 16.779 24.565 19.074ZM19.89 17.68C20.264 17.952 20.791 17.884 21.08 17.51C21.352 17.136 21.284 16.609 20.91 16.32C20.536 16.031 20.009 16.116 19.72 16.49C19.448 16.847 19.516 17.391 19.89 17.68ZM25.007 23.919C23.018 25.245 20.655 25.602 18.496 25.092C18.037 24.99 17.748 24.514 17.867 24.055C17.986 23.596 18.445 23.324 18.921 23.443L19.21 23.511C20.842 23.8 22.576 23.494 24.072 22.508C24.871 21.964 25.534 21.284 26.01 20.502C26.265 20.111 26.775 19.992 27.183 20.23C27.574 20.485 27.693 21.012 27.455 21.403C26.843 22.372 26.027 23.239 25.007 23.919ZM26.792 26.588C24.376 28.2079 21.4359 28.8518 18.564 28.39C18.4535 28.3677 18.3485 28.3238 18.2549 28.2609C18.1614 28.198 18.0811 28.1172 18.0188 28.0233C17.9564 27.9294 17.9132 27.8241 17.8915 27.7135C17.8698 27.6028 17.8702 27.489 17.8925 27.3785C17.9148 27.268 17.9587 27.163 18.0216 27.0694C18.0845 26.9759 18.1653 26.8956 18.2592 26.8333C18.3531 26.7709 18.4584 26.7277 18.569 26.706C18.6797 26.6843 18.7935 26.6847 18.904 26.707L19.278 26.775C21.505 27.03 23.834 26.537 25.857 25.177C27.064 24.378 28.016 23.358 28.747 22.219C28.985 21.811 29.512 21.692 29.903 21.947C30.311 22.185 30.43 22.712 30.175 23.12C29.342 24.463 28.203 25.653 26.792 26.588Z" fill="white"/>
</g>
<defs>
<clipPath id="clip0_1_36">
<rect width="34" height="34" fill="white"/>
</clipPath>
</defs>
</svg>
